<!-- This was generated using the Rutan font -->
<svg
  version="1.2"
  xmlns="http://www.w3.org/2000/svg"
  viewBox="0 0 148 56"
  width="148"
  height="56"
>
  <path
    aria-label="Glide"
    fill="context-fill #fff"
    d="m17 32.7v-5.5h15.2v18.8h-5.5v-4.1q-3.4 4.8-10 4.8-6.9 0-11.3-4.9-4.4-5-4.4-12.7v-0.5q0-7.8 4.6-12.7 4.5-4.9 11.8-4.9h0.3q3.8 0 7.3 1.6 3.5 1.6 5.9 4.5l-4 4.3q-2.4-2.4-4.5-3.3-2.1-1.1-4.8-1.1h-0.1q-4.4 0-7 3.2-2.6 3.2-2.6 8.4v0.5q0 5.1 2.6 8.3 2.6 3.3 7.1 3.3 3.5 0 5.9-2.2 2.3-2.3 2.6-5.8zm21.8-22h6.5v35.3h-6.5zm17.3-2q1.8 0 2.9 1 1.1 1 1.1 2.5 0 1.6-1.1 2.6-1.1 0.9-2.9 0.9-1.8 0-2.9-0.9-1-1-1-2.6 0-1.5 1-2.5 1.1-1 2.9-1zm-3.2 10.3h6.5v27h-6.5zm32.5 3.1v-11.5h6.5v35.3h-6.5v-3.4q-1.2 1.9-3.4 3-2.2 1.1-4.8 1.1h-0.2q-5.3 0-8.6-3.9-3.2-3.9-3.2-10v-0.4q0-6.2 3.2-10.1 3.3-3.9 8.5-3.9h0.2q2.5 0 4.7 1 2.3 1 3.6 2.8zm-7 18.7h0.2q3 0 4.9-2.3 1.9-2.3 1.9-5.9v-0.2q0-3.7-1.9-6-1.9-2.3-4.9-2.3h-0.2q-3.1 0-4.9 2.3-1.8 2.2-1.8 6v0.2q0 3.7 1.8 5.9 1.8 2.3 4.9 2.3zm44.7-8.1v1.6h-19.5q0.4 3.2 2.3 5 2 1.8 5.2 1.8h0.2q4.5 0 7.2-3.2l3.5 3.8q-1.8 2.3-4.7 3.6-3 1.3-6.4 1.3-6.2 0-10.1-3.9-3.8-3.8-3.8-10v-0.4q0-6.2 3.7-10.1 3.7-3.9 9.5-3.9h0.3q5.8 0 9.1 3.9 3.5 3.8 3.5 10.5zm-12.6-9.1h-0.2q-2.7 0-4.5 1.7-1.7 1.6-2.2 4.4h12.9q-0.7-6.1-6-6.1z"
  />
</svg>
